<svg xmlns="http://www.w3.org/2000/svg" viewBox="0 0 600 700" role="img" aria-labelledby="title desc">
  <title id="title">Originales Feuerwehrwappen</title>
  <desc id="desc">Wappen mit grünem Helm, gelbem und weiß-rot gestreiftem Schild sowie roten Verzierungen.</desc>
  <g fill="none" stroke-linejoin="round" stroke-linecap="round">
    <path d="M300 90C210 90 140 150 140 230v150c0 110 80 190 160 250 80-60 160-140 160-250V230C460 150 390 90 300 90Z" fill="#ffffff" stroke="#0b8f2a" stroke-width="16" />
    <path d="M300 104c-60 10-98 56-98 126v142c0 76 40 132 98 182V104Z" fill="#f5d400" stroke="#0b8f2a" stroke-width="8" />
    <path d="M300 104v450c58-50 98-106 98-182V230c0-70-38-116-98-126Z" fill="#ffffff" stroke="#0b8f2a" stroke-width="8" />
    <path d="M300 152 436 16h44L300 196Z" fill="#d91c34" stroke="#0b8f2a" stroke-width="6" />
    <path d="M300 250 484 66v44L300 294Z" fill="#d91c34" stroke="#0b8f2a" stroke-width="6" />
  </g>
  <g stroke="#0b8f2a" stroke-width="12" stroke-linejoin="round" stroke-linecap="round">
    <path d="M300 86 374 132c12 44 18 90 18 142H208c0-52 6-98 18-142Z" fill="#22a043" />
    <path d="M256 134h88c10 32 16 68 16 110H240c0-42 6-78 16-110Z" fill="#22a043" />
    <path d="M246 144c-14 34-20 72-20 110h148c0-38-6-76-20-110Z" fill="#ffed4a" stroke-width="6" />
    <path d="M266 160c-8 26-12 54-12 94h92c0-40-4-68-12-94Z" fill="#d91c34" stroke-width="5" />
    <path d="M300 170c-6 18-8 36-8 64h16c0-28-2-46-8-64Z" fill="#fff8d8" stroke-width="4" />
  </g>
  <g fill="#d91c34" stroke="#0b8f2a" stroke-width="14" stroke-linejoin="round" stroke-linecap="round">
    <path d="M166 152c-44 16-78 48-96 92 24 10 48 12 74 4-10 28-10 58 4 86 40-12 70-38 90-74-24-30-42-66-52-108Z" />
    <path d="M434 152c44 16 78 48 96 92-24 10-48 12-74 4 10 28 10 58-4 86-40-12-70-38-90-74 24-30 42-66 52-108Z" />
  </g>
  <g fill="#f5d400" stroke="#0b8f2a" stroke-width="10" stroke-linejoin="round" stroke-linecap="round">
    <path d="M230 40c-6 34 2 64 24 88 18-24 42-40 72-46-20-26-54-40-96-42Z" />
    <path d="M370 40c6 34-2 64-24 88-18-24-42-40-72-46 20-26 54-40 96-42Z" transform="scale(-1,1) translate(-600,0)" />
  </g>
  <g fill="#ffffff" stroke="#0b8f2a" stroke-width="10" stroke-linejoin="round">
    <path d="M392 42c6 30-2 56-22 78-12-24-30-42-54-52 18-22 44-34 76-26Z" />
    <path d="M208 42c-6 30 2 56 22 78 12-24 30-42 54-52-18-22-44-34-76-26Z" />
  </g>
  <g fill="#ffffff" stroke="#0b8f2a" stroke-width="10" stroke-linejoin="round">
    <path d="M388 10c10 42-6 78-38 108-16-32-38-56-70-70 24-32 60-48 108-38Z" fill="#f5d400" />
    <path d="M212 10c-10 42 6 78 38 108 16-32 38-56 70-70-24-32-60-48-108-38Z" fill="#ffffff" />
    <path d="M382 10c8 30-4 56-28 78-12-26-30-44-54-56 20-22 46-32 82-22Z" fill="#ffffff" transform="matrix(-1 0 0 1 600 0)" />
  </g>
</svg>
