<svg xmlns="http://www.w3.org/2000/svg" viewBox="0 0 400 480" role="img" aria-labelledby="title desc">
  <title id="title">Stilisiertes Gemeindewappen</title>
  <desc id="desc">Wappen mit grünem Helm, gelber und weiß-roter Schildhälfte sowie roten Verzierungen.</desc>
  <defs>
    <linearGradient id="shieldHighlight" x1="0%" y1="0%" x2="0%" y2="100%">
      <stop offset="0%" stop-color="#ffffff" stop-opacity="0.85" />
      <stop offset="100%" stop-color="#fdf4bf" stop-opacity="0.4" />
    </linearGradient>
  </defs>
  <g fill="none" stroke-linejoin="round">
    <path d="M200 30C138 38 90 88 90 152v118c0 82 56 134 110 176 54-42 110-94 110-176V152c0-64-48-114-110-122Z" fill="url(#shieldHighlight)" stroke="#0b8f2a" stroke-width="12" />
    <path d="M200 42c-44 8-76 44-76 100v116c0 54 32 94 76 128V42Z" fill="#f4d03f" stroke="#0b8f2a" stroke-width="4" />
    <path d="M200 42v344c44-34 76-74 76-128V142c0-56-32-92-76-100Z" fill="#ffffff" stroke="#0b8f2a" stroke-width="4" />
    <path d="M200 86l74 74v40l-74-74Z" fill="#d7263d" stroke="#0b8f2a" stroke-width="3" />
    <path d="M200 150l74 74v40l-74-74Z" fill="#d7263d" stroke="#0b8f2a" stroke-width="3" />
    <path d="M200 214l74 74v24c-10 26-27 48-50 70l-24-22Z" fill="#d7263d" stroke="#0b8f2a" stroke-width="3" />
  </g>
  <g stroke="#0b8f2a" stroke-width="6" stroke-linejoin="round" stroke-linecap="round">
    <path d="M200 30l52 32c8 32 12 66 12 104H136c0-38 4-72 12-104Z" fill="#2ea843" />
    <path d="M176 76h48c8 24 12 48 12 82h-72c0-34 4-58 12-82Z" fill="#2ea843" />
    <path d="M168 82c-10 24-15 50-15 76h94c0-26-5-52-15-76Z" fill="#f4d03f" stroke-width="4" />
    <path d="M182 94c-6 18-9 37-9 64h54c0-27-3-46-9-64Z" fill="#d7263d" stroke-width="3" />
    <path d="M200 100c-4 12-6 24-6 40h12c0-16-2-28-6-40Z" fill="#fff8d6" stroke-width="2" />
  </g>
  <g fill="#d7263d" stroke="#0b8f2a" stroke-width="10" stroke-linejoin="round" stroke-linecap="round">
    <path d="M120 92c-36 14-62 40-76 78 18 8 36 10 56 4-8 22-8 44 2 66 32-10 56-30 72-60-18-24-32-52-40-88Z" />
    <path d="M280 92c36 14 62 40 76 78-18 8-36 10-56 4 8 22 8 44-2 66-32-10-56-30-72-60 18-24 32-52 40-88Z" />
  </g>
  <g fill="#f4d03f" stroke="#0b8f2a" stroke-width="8" stroke-linejoin="round">
    <path d="M152 12c-4 26 2 48 18 66 14-18 32-30 56-36-16-20-40-32-74-30Z" />
    <path d="M248 12c4 26-2 48-18 66-14-18-32-30-56-36 16-20 40-32 74-30Z" transform="scale(-1,1) translate(-400,0)" />
  </g>
  <g fill="#ffffff" stroke="#0b8f2a" stroke-width="6" stroke-linejoin="round">
    <path d="M284 12c4 24-2 44-18 60-10-20-24-34-42-42 14-18 34-28 60-18Z" />
    <path d="M116 12c-4 24 2 44 18 60 10-20 24-34 42-42-14-18-34-28-60-18Z" />
  </g>
</svg>
